<svg width="1248" height="1248" xmlns="http://www.w3.org/2000/svg"><path d="M0 0h1248v1248H0z"/><g fill="#FFF"><path d="M547 815.171V984c0 11.046-8.954 20-20 20H327c-11.046 0-20-8.954-20-20V663.3c0-11.046 8.954-20 20-20a20 20 0 0 1 12.095 4.072l200 151.871A20 20 0 0 1 547 815.171ZM700 431.829V263c0-11.046 8.954-20 20-20h200c11.046 0 20 8.954 20 20v320.7c0 11.046-8.954 20-20 20a20 20 0 0 1-12.095-4.072l-200-151.871A20 20 0 0 1 700 431.829ZM940.064 753.45v229.255c0 11.045-8.955 20-20 20a20 20 0 0 1-12.4-4.308L314.93 530.006a20 20 0 0 1-7.6-15.692v-247.99c0-11.046 8.954-20 20-20a20 20 0 0 1 12.699 4.549l592.733 487.126a20 20 0 0 1 7.302 15.452Z"/></g></svg>