<svg width="1248px" height="1248px" viewBox="0 0 1248 1248" version="1.1" xmlns="http://www.w3.org/2000/svg" xmlns:xlink="http://www.w3.org/1999/xlink">
    <rect id="Rectangle" fill="#000000" x="0" y="0" width="1248" height="1248"></rect>
    <g id="Group-5" transform="translate(307, 224)" fill="#FFFFFF">
        <path d="M240,591.171188 L240,760 C240,771.045695 231.045695,780 220,780 L20,780 C8.954305,780 6.76353751e-16,771.045695 0,760 L-1.77635684e-14,439.299859 C-1.91162759e-14,428.254164 8.954305,419.299859 20,419.299859 C24.3682035,419.299859 28.6162924,420.729972 32.0951688,423.37168 L232.095169,575.243009 C237.075276,579.024686 240,584.917985 240,591.171188 Z" id="Polygon"></path>
        <path d="M633,211.171188 L633,380 C633,391.045695 624.045695,400 613,400 L413,400 C401.954305,400 393,391.045695 393,380 L393,59.2998589 C393,48.2541639 401.954305,39.2998589 413,39.2998589 C417.368203,39.2998589 421.616292,40.7299718 425.095169,43.3716797 L625.095169,195.243009 C630.075276,199.024686 633,204.917985 633,211.171188 Z" id="Polygon-Copy-3" transform="translate(513, 209.5) scale(-1, -1) translate(-513, -209.5)"></path>
        <path d="M633.063554,529.450876 L633.063554,758.704766 C633.063554,769.750461 624.109249,778.704766 613.063554,778.704766 C608.56321,778.704766 604.194392,777.186948 600.663434,774.396707 L7.92997655,306.005594 C3.13004759,302.212583 0.330096435,296.431352 0.330096435,290.313652 L0.330096435,42.3241181 C0.330096435,31.2784231 9.28440144,22.3241181 20.3300964,22.3241181 C24.9619279,22.3241181 29.4501666,23.9317777 33.0285978,26.8726436 L625.762056,513.999402 C630.384659,517.798401 633.063554,523.467495 633.063554,529.450876 Z" id="Polygon"></path>
    </g>
</svg>